<svg width="77" height="76" viewBox="0 0 77 76" fill="none" xmlns="http://www.w3.org/2000/svg">
<path opacity="0.06" d="M55.4651 0.265625H21.6892C10.1415 0.265625 0.780273 9.62687 0.780273 21.1745V54.9505C0.780273 66.4981 10.1415 75.8594 21.6892 75.8594H55.4651C67.0128 75.8594 76.374 66.4981 76.374 54.9505V21.1745C76.374 9.62687 67.0128 0.265625 55.4651 0.265625Z" fill="#0089FF"/>
<path d="M38.5772 63.8029C52.7932 63.8029 64.3176 52.2786 64.3176 38.0625C64.3176 23.8465 52.7932 12.3221 38.5772 12.3221C24.3611 12.3221 12.8368 23.8465 12.8368 38.0625C12.8368 52.2786 24.3611 63.8029 38.5772 63.8029Z" fill="#1B76FF"/>
<path fill-rule="evenodd" clip-rule="evenodd" d="M25.1674 32.9688H29.8132V51.1299H25.1674C24.4679 51.1299 23.9008 50.5898 23.9008 49.9236V34.175C23.9008 33.5088 24.4679 32.9688 25.1674 32.9688Z" stroke="white" stroke-width="1.60838" stroke-linecap="round" stroke-linejoin="round"/>
<path fill-rule="evenodd" clip-rule="evenodd" d="M51.8411 47.7297C51.547 49.9931 50.0348 51.1299 47.3463 51.1299H33.2787C31.3674 51.1299 29.8131 49.667 29.8131 47.8681V32.9905C34.2743 32.5556 36.5049 30.9982 36.5049 26.8104V24.8035C36.5049 22.6883 38.3054 20.9735 40.5264 20.9735C41.3728 20.9735 42.1976 21.2278 42.8834 21.7003C43.8286 22.3526 44.4308 23.5882 44.4308 25.3673V31.1765C44.4308 31.6707 45.2674 32.0759 46.1039 32.0759H50.5913C52.4817 32.0759 54.015 33.4992 54.057 35.2685C54.0851 36.448 53.3464 40.0991 51.8411 47.7297Z" stroke="white" stroke-width="1.60838" stroke-linecap="round" stroke-linejoin="round"/>
</svg>
