<svg width="77" height="77" viewBox="0 0 77 77" fill="none" xmlns="http://www.w3.org/2000/svg">
<path opacity="0.06" d="M55.1704 0.859375H21.3945C9.84684 0.859375 0.485596 10.2206 0.485596 21.7683V55.5442C0.485596 67.0919 9.84684 76.4531 21.3945 76.4531H55.1704C66.7181 76.4531 76.0793 67.0919 76.0793 55.5442V21.7683C76.0793 10.2206 66.7181 0.859375 55.1704 0.859375Z" fill="#5CC97B"/>
<path d="M38.2825 64.3967C52.4986 64.3967 64.0229 52.8723 64.0229 38.6563C64.0229 24.4402 52.4986 12.9159 38.2825 12.9159C24.0665 12.9159 12.5421 24.4402 12.5421 38.6563C12.5421 52.8723 24.0665 64.3967 38.2825 64.3967Z" fill="#5CC97B"/>
<path fill-rule="evenodd" clip-rule="evenodd" d="M41.0395 45.0292C39.1965 46.2479 36.9668 46.9189 34.591 46.8208C28.5818 46.5726 23.9114 41.4995 24.1596 35.4901C24.4078 29.4807 29.4806 24.8111 35.4897 25.0593C41.4979 25.3073 46.1694 30.3794 45.9212 36.3889C45.8337 38.5072 45.1466 40.4592 44.0303 42.088L51.3669 49.2115C52.2721 50.1929 52.2397 51.7099 51.3097 52.6499L51.2669 52.6893L51.2217 52.7284C50.2107 53.5779 48.6961 53.4868 47.7918 52.5046L41.0395 45.0292ZM34.6947 44.309C30.0725 44.1181 26.4797 40.2157 26.6706 35.5935C26.8615 30.9713 30.7638 27.3785 35.3861 27.5694C40.0083 27.7603 43.6012 31.6626 43.4103 36.2848C43.2194 40.9071 39.3169 44.4999 34.6947 44.309Z" fill="white"/>
</svg>
