<svg width="76" height="76" viewBox="0 0 76 76" fill="none" xmlns="http://www.w3.org/2000/svg">
<path opacity="0.06" d="M55.0402 0H21.0828C9.47307 0 0.0615234 9.41155 0.0615234 21.0213V54.9787C0.0615234 66.5885 9.47307 76 21.0828 76H55.0402C66.65 76 76.0615 66.5885 76.0615 54.9787V21.0213C76.0615 9.41155 66.65 0 55.0402 0Z" fill="#F6CA4F"/>
<path d="M38.0616 63.8788C52.354 63.8788 63.9403 52.2925 63.9403 38.0001C63.9403 23.7076 52.354 12.1213 38.0616 12.1213C23.7691 12.1213 12.1829 23.7076 12.1829 38.0001C12.1829 52.2925 23.7691 63.8788 38.0616 63.8788Z" fill="#FF6D35"/>
<path d="M47.6121 49.6729H28.511C26.1765 49.6729 24.2664 47.7628 24.2664 45.4282V30.5718C24.2664 28.2373 26.1765 26.3271 28.511 26.3271H47.6121C49.9467 26.3271 51.8568 28.2373 51.8568 30.5718V45.4282C51.8568 47.7628 49.9467 49.6729 47.6121 49.6729Z" stroke="white" stroke-width="2" stroke-miterlimit="10" stroke-linecap="round" stroke-linejoin="round"/>
<path d="M24.2664 31.6329L38.0616 40.1223L51.8568 31.6329" stroke="white" stroke-width="2" stroke-miterlimit="10" stroke-linecap="round" stroke-linejoin="round"/>
</svg>
