<svg width="77" height="76" viewBox="0 0 77 76" fill="none" xmlns="http://www.w3.org/2000/svg">
<path opacity="0.06" d="M55.1704 0.265625H21.3945C9.84684 0.265625 0.485596 9.62687 0.485596 21.1745V54.9505C0.485596 66.4981 9.84684 75.8594 21.3945 75.8594H55.1704C66.7181 75.8594 76.0793 66.4981 76.0793 54.9505V21.1745C76.0793 9.62687 66.7181 0.265625 55.1704 0.265625Z" fill="#FF6F35"/>
<path d="M38.2825 63.8029C52.4986 63.8029 64.0229 52.2786 64.0229 38.0625C64.0229 23.8465 52.4986 12.3221 38.2825 12.3221C24.0665 12.3221 12.5421 23.8465 12.5421 38.0625C12.5421 52.2786 24.0665 63.8029 38.2825 63.8029Z" fill="#FFCD1D"/>
<path d="M38.2825 21.8447V54.2804" stroke="white" stroke-width="2.41257" stroke-linecap="round" stroke-linejoin="round"/>
<path d="M45.6542 27.7421H34.5966C33.2281 27.7421 31.9156 28.2857 30.9478 29.2535C29.98 30.2211 29.4364 31.5337 29.4364 32.9022C29.4364 34.2708 29.98 35.5833 30.9478 36.5511C31.9156 37.5188 33.2281 38.0625 34.5966 38.0625H41.9683C43.3369 38.0625 44.6494 38.6061 45.6172 39.5739C46.5849 40.5415 47.1286 41.8541 47.1286 43.2227C47.1286 44.5913 46.5849 45.9038 45.6172 46.8715C44.6494 47.8392 43.3369 48.3829 41.9683 48.3829H29.4364" stroke="white" stroke-width="2.41257" stroke-linecap="round" stroke-linejoin="round"/>
</svg>
