<svg width="211" height="65" viewBox="0 0 211 65" fill="none" xmlns="http://www.w3.org/2000/svg">
<path d="M23.867 45.3943L35.5266 40.3411L42.2376 44.1308L43.5934 56.564L35.3232 56.4979L36.5434 47.8539L35.1199 47.0561L28.1376 52.3753L23.867 45.3943Z" fill="#81818B"/>
<path d="M42.9837 43.5985L53.2876 50.9783L57.3547 43.8645L49.0844 40.6066V39.0109L57.3547 35.6866L53.2876 28.6389L42.9837 36.019V43.5985Z" fill="#81818B"/>
<path d="M42.2376 35.4209L43.5934 22.9878L35.3232 23.1208L36.5434 31.7641L35.1199 32.5619L28.0698 27.243L23.867 34.1576L35.5266 39.2107L42.2376 35.4209Z" fill="#81818B"/>
<path d="M84.9456 38.2858V49.934H89.3965V35.0895H82.9149V38.2858H84.9456Z" fill="#81818B"/>
<path d="M84.8064 33.0038C85.2144 33.4191 85.836 33.6267 86.6702 33.6267C87.5055 33.6267 88.1171 33.4191 88.5061 33.0038C88.9145 32.5702 89.1182 32.0284 89.1182 31.3785C89.1182 30.7102 88.9145 30.1685 88.5061 29.7532C88.1171 29.3198 87.5055 29.103 86.6702 29.103C85.836 29.103 85.2144 29.3198 84.8064 29.7532C84.4174 30.1685 84.2226 30.7102 84.2226 31.3785C84.2226 32.0284 84.4174 32.5702 84.8064 33.0038Z" fill="#81818B"/>
<path d="M69.4507 49.6087C70.7118 50.1684 72.26 50.4486 74.0959 50.4486C75.8211 50.4486 77.3042 50.1864 78.5474 49.6629C79.7901 49.1393 80.745 48.4078 81.4123 47.4686C82.099 46.5115 82.4418 45.401 82.4418 44.1368C82.4418 42.9089 82.1179 41.8705 81.4685 41.0216C80.8374 40.1549 79.957 39.4777 78.8256 38.9902C77.6943 38.4844 76.3865 38.1684 74.9028 38.0422L73.3452 37.9067C72.418 37.8343 71.7502 37.5907 71.3423 37.1752C70.9338 36.7599 70.7301 36.2722 70.7301 35.7126C70.7301 35.279 70.842 34.8818 71.0635 34.5206C71.2866 34.1414 71.62 33.8434 72.0652 33.6266C72.5293 33.4101 73.0947 33.3017 73.7625 33.3017C74.4671 33.3017 75.0514 33.4279 75.515 33.6809C75.6168 33.7344 75.714 33.7915 75.8048 33.8521L75.8268 33.8672C75.861 33.8901 75.8946 33.9139 75.9271 33.9379C76.209 34.1474 76.4332 34.3959 76.6002 34.6832C76.8406 35.0805 76.9619 35.5228 76.9619 36.0105H81.4123C81.4123 34.7101 81.1062 33.5815 80.4946 32.6245C79.883 31.6493 79.002 30.8999 77.8523 30.376C76.7204 29.8343 75.3575 29.5634 73.7625 29.5634C72.2416 29.5634 70.9249 29.8164 69.8119 30.3219C68.6994 30.8096 67.8279 31.5138 67.1974 32.4347C66.5847 33.3557 66.2787 34.4484 66.2787 35.7126C66.2787 37.4642 66.8819 38.8727 68.0873 39.9383C69.2927 41.0037 70.9065 41.6177 72.9278 41.7802L74.4582 41.9157C75.7003 42.0241 76.6002 42.2679 77.1567 42.6469C77.7126 43.0081 77.9909 43.5047 77.9909 44.1368C77.9909 44.4273 77.9421 44.6997 77.8444 44.9543C77.772 45.1433 77.6722 45.3222 77.5462 45.4913C77.2485 45.8703 76.8133 46.1683 76.2384 46.3854C75.6636 46.6019 74.9496 46.7102 74.0959 46.7102C73.1504 46.7102 72.3807 46.584 71.7875 46.3308C71.1937 46.0601 70.749 45.7079 70.4514 45.2748C70.1736 44.8411 70.035 44.3717 70.035 43.8659H65.6114C65.6114 45.1481 65.9358 46.286 66.5847 47.2789C67.2342 48.2543 68.1891 49.0311 69.4507 49.6087Z" fill="#81818B"/>
<path d="M99.3279 50.1233C97.7881 50.1233 96.546 49.943 95.5999 49.5815C94.6539 49.2025 93.9588 48.5792 93.5136 47.7125C93.0873 46.8275 92.8736 45.6359 92.8736 44.1368V38.2587H90.5646V35.0895H92.8736V31.0806H97.0185V35.0895H101.47V38.2587H97.0185V44.2996C97.0185 45.0038 97.2043 45.5455 97.575 45.9245C97.9645 46.286 98.5116 46.4664 99.2166 46.4664H101.47V50.1233H99.3279Z" fill="#81818B"/>
<path fill-rule="evenodd" clip-rule="evenodd" d="M106.829 49.7984C107.83 50.2316 108.981 50.4486 110.278 50.4486C111.558 50.4486 112.69 50.2316 113.672 49.7984C114.655 49.3648 115.472 48.7599 116.121 47.9836C116.769 47.2068 117.206 46.3218 117.428 45.3289H113.339C113.153 45.7804 112.801 46.1594 112.282 46.4663C111.763 46.7733 111.094 46.9272 110.278 46.9272C109.773 46.9272 109.321 46.8686 108.923 46.7522C108.62 46.6637 108.349 46.5415 108.109 46.3854C107.552 46.0243 107.144 45.5182 106.884 44.8683C106.812 44.6832 106.751 44.4895 106.699 44.2878C106.646 44.0834 106.603 43.8708 106.571 43.6494H117.706V42.1865C117.706 40.8321 117.409 39.5861 116.816 38.4485C116.222 37.2925 115.36 36.3625 114.229 35.6583C113.116 34.9359 111.744 34.5747 110.111 34.5747C108.869 34.5747 107.756 34.7915 106.773 35.2249C105.809 35.6402 105.002 36.209 104.353 36.9314C103.704 37.6537 103.203 38.4756 102.85 39.3966C102.517 40.2993 102.35 41.2474 102.35 42.2407V42.7824C102.35 43.7397 102.517 44.6786 102.85 45.5997C103.203 46.5026 103.704 47.3241 104.353 48.0646C105.02 48.7872 105.845 49.3648 106.829 49.7984ZM106.648 40.9708C106.66 40.9135 106.673 40.857 106.687 40.8014C106.726 40.6483 106.77 40.5015 106.821 40.3613C106.85 40.2814 106.88 40.2035 106.913 40.1278C107.19 39.4596 107.599 38.954 108.136 38.611C108.337 38.4827 108.555 38.3784 108.789 38.2982C109.183 38.1636 109.624 38.0963 110.111 38.0963C110.872 38.0963 111.502 38.2679 112.003 38.611C112.522 38.9359 112.912 39.4145 113.172 40.0465C113.193 40.0975 113.213 40.1495 113.232 40.202C113.262 40.2858 113.291 40.3717 113.318 40.4598C113.357 40.5909 113.391 40.7266 113.422 40.8668C113.444 40.9702 113.463 41.076 113.479 41.1844H106.605C106.618 41.112 106.632 41.0409 106.648 40.9708Z" fill="#81818B"/>
<path d="M119.543 49.934V35.0895H123.076V38.8282C123.124 38.6059 123.179 38.3926 123.24 38.1881C123.292 38.0157 123.348 37.8495 123.41 37.6899C123.799 36.6785 124.384 35.9202 125.162 35.4144C125.941 34.8907 126.896 34.629 128.028 34.629H128.222C129.373 34.629 130.327 34.8907 131.088 35.4144C131.867 35.9202 132.451 36.6785 132.84 37.6899L132.871 37.7662L132.897 37.836C132.915 37.7867 132.933 37.7381 132.952 37.6899C133.359 36.6785 133.953 35.9202 134.732 35.4144C135.511 34.8907 136.466 34.629 137.598 34.629H137.793C138.942 34.629 139.906 34.8907 140.685 35.4144C141.483 35.9202 142.086 36.6785 142.493 37.6899C142.901 38.7012 143.106 39.9654 143.106 41.4823V49.934H138.655V41.2384C138.655 40.4258 138.432 39.7667 137.987 39.2611C137.561 38.7553 136.948 38.5025 136.151 38.5025C135.353 38.5025 134.723 38.7645 134.259 39.2881C133.796 39.7937 133.564 40.4709 133.564 41.3198V49.934H129.085V41.2384C129.085 40.4258 128.862 39.7667 128.417 39.2611C127.991 38.7553 127.388 38.5025 126.61 38.5025C125.793 38.5025 125.153 38.7645 124.69 39.2881C124.226 39.7937 123.994 40.4709 123.994 41.3198V49.934H119.543Z" fill="#81818B"/>
<path fill-rule="evenodd" clip-rule="evenodd" d="M154.996 47.0736V49.9341H158.528V40.8322C158.528 39.4597 158.25 38.3402 157.694 37.4732C157.137 36.5883 156.322 35.9293 155.246 35.4959C154.189 35.0625 152.882 34.8457 151.323 34.8457C150.986 34.8457 150.634 34.8492 150.266 34.8564C150.049 34.8608 149.826 34.8662 149.599 34.8728C148.987 34.8909 148.393 34.9179 147.818 34.9541L147.379 34.9829C147.153 34.9982 146.942 35.0132 146.742 35.0285C146.593 35.0398 146.45 35.0512 146.316 35.0625V38.7195C146.891 38.6832 147.531 38.6471 148.236 38.6111C148.433 38.601 148.628 38.5916 148.822 38.5829C149.102 38.5703 149.378 38.5593 149.652 38.5498C149.868 38.5421 150.082 38.5353 150.294 38.5297C150.962 38.5116 151.5 38.5026 151.908 38.5026C152.724 38.5026 153.317 38.6922 153.689 39.0715C154.059 39.4507 154.244 40.0196 154.244 40.7782V40.8322H151.49C150.137 40.8322 148.94 41.0038 147.901 41.347C146.863 41.672 146.056 42.1866 145.482 42.8909C144.906 43.5773 144.619 44.4621 144.619 45.5456C144.619 46.5389 144.851 47.3967 145.314 48.1193C145.778 48.8231 146.418 49.3649 147.234 49.7439C148.069 50.1234 149.033 50.3131 150.127 50.3131C151.184 50.3131 152.075 50.1234 152.798 49.7439C153.54 49.3649 154.115 48.8231 154.523 48.1193C154.595 48.0003 154.661 47.8772 154.724 47.7493C154.812 47.5685 154.891 47.3783 154.96 47.1787L154.996 47.0736ZM154.244 44.4351V43.2431H151.463C150.683 43.2431 150.081 43.4327 149.654 43.812C149.246 44.1732 149.042 44.6698 149.042 45.3018C149.042 45.5993 149.093 45.8696 149.195 46.1134C149.297 46.3577 149.45 46.5747 149.654 46.7644C150.081 47.126 150.683 47.3063 151.463 47.3063C151.611 47.3063 151.754 47.2991 151.892 47.2853C152.005 47.2736 152.116 47.2571 152.222 47.236C152.425 47.1958 152.618 47.1376 152.798 47.0624C153.206 46.8821 153.54 46.5841 153.799 46.1684C154.059 45.7532 154.208 45.1751 154.244 44.4351Z" fill="#81818B"/>
<path d="M161.192 49.9341V35.0895H164.726V39.9892C164.895 38.5905 165.322 37.4627 166.005 36.6065C166.933 35.4689 168.267 34.9 170.011 34.9H170.596V38.6381H169.483C168.259 38.6381 167.313 38.9631 166.645 39.6132C165.977 40.2453 165.643 41.1664 165.643 42.3761V49.9341H161.192Z" fill="#81818B"/>
<path d="M176.24 42.9993H177.714L182.527 49.9341H187.534L181.432 41.4174L186.449 35.0896H181.776L176.24 42.1478V30.1595H171.789V49.9341H176.24V42.9993Z" fill="#81818B"/>
</svg>
