<svg width="211" height="65" viewBox="0 0 211 65" fill="none" xmlns="http://www.w3.org/2000/svg">
<path d="M30.5687 28.2956C32.7229 26.3337 35.648 25.1886 38.6126 25.0462C39.6273 25.0462 40.645 25.0519 41.6596 25.0432C41.6078 26.0809 41.6596 27.1214 41.6291 28.159C41.486 30.4784 40.5871 32.7454 39.0727 34.5649C37.1044 37.0122 34.0941 38.6543 30.8978 39.0787C29.5023 39.2938 28.0854 39.1572 26.6809 39.195C26.7052 38.0527 26.629 36.9076 26.7235 35.7682C26.9977 32.9431 28.3963 30.2371 30.5687 28.2956Z" fill="#81818B"/>
<path d="M42.5992 25.0432C43.687 25.0549 44.7747 25.0374 45.8655 25.049C48.5803 25.2321 51.2586 26.2261 53.3029 27.9498C55.5576 29.7954 57.1027 32.4345 57.4986 35.2538C57.6723 36.5617 57.5626 37.8841 57.6298 39.1978C56.679 39.195 55.7314 39.1921 54.7806 39.1978C52.4439 39.1368 50.1465 38.416 48.1903 37.2011C47.2884 36.5849 46.3622 35.9601 45.6857 35.1055C44.2019 33.5244 43.1934 31.5392 42.8125 29.4466C42.526 27.9933 42.6418 26.511 42.5992 25.0432Z" fill="#81818B"/>
<path d="M26.6829 40.0291C27.6488 40.0813 28.6177 39.9854 29.5805 40.0872C33.703 40.1714 37.7037 42.3804 39.8395 45.7432C41.0645 47.6266 41.7226 49.8589 41.6373 52.0763C41.6342 52.8035 41.6464 53.5269 41.6251 54.2509C40.0955 54.2068 38.5507 54.326 37.0364 54.044C33.6726 53.5038 30.58 51.5939 28.7182 48.8677C27.3075 46.8854 26.6037 44.4644 26.6768 42.0723C26.6768 41.3892 26.6768 40.7091 26.6829 40.0291Z" fill="#81818B"/>
<path d="M52.4815 40.337C54.1391 39.9853 55.848 40.0434 57.5332 40.0434L57.6067 40.1132C57.57 41.6333 57.6949 43.1708 57.3752 44.6735C56.7016 48.045 54.3617 51.0559 51.214 52.7097C49.2548 53.7506 47.0062 54.2619 44.7667 54.2388C44.0507 54.242 43.3316 54.2273 42.6156 54.2472C42.6156 52.9888 42.5607 51.7248 42.71 50.4717C43.0574 47.4404 44.7759 44.6182 47.2469 42.7116C48.7765 41.5606 50.5742 40.7265 52.4815 40.337Z" fill="#81818B"/>
<path d="M70.1148 48.6211C70.1148 49.1328 69.929 49.5657 69.5583 49.92C69.2071 50.2547 68.7635 50.422 68.2275 50.422C67.7114 50.422 67.2783 50.2547 66.9276 49.92C66.5769 49.5657 66.4015 49.1328 66.4015 48.6211V30.3775C66.4015 29.8658 66.5769 29.4427 66.9276 29.1082C67.2987 28.7539 67.7529 28.5768 68.2894 28.5768C68.8254 28.5768 69.2586 28.7539 69.5888 29.1082C69.9395 29.4427 70.1148 29.8658 70.1148 30.3775V48.6211Z" fill="#81818B"/>
<path d="M85.0206 34.6284C85.5567 34.6284 86.0003 34.8055 86.3515 35.1598C86.7017 35.4943 86.877 35.9174 86.877 36.4291V43.9273C86.877 46.0134 86.2686 47.6665 85.0516 48.8867C83.8341 50.1069 82.0806 50.7168 79.7901 50.7168C77.5005 50.7168 75.7465 50.1069 74.5296 48.8867C73.3331 47.6665 72.7346 46.0134 72.7346 43.9273V36.4291C72.7346 35.9174 72.9099 35.4943 73.2606 35.1598C73.6113 34.8055 74.055 34.6284 74.5915 34.6284C75.1281 34.6284 75.5712 34.8055 75.9219 35.1598C76.2731 35.4943 76.4484 35.9174 76.4484 36.4291V43.9273C76.4484 45.1278 76.7272 46.0232 77.2837 46.6136C77.8407 47.1844 78.6765 47.4697 79.7901 47.4697C80.9256 47.4697 81.7709 47.1844 82.3284 46.6136C82.8849 46.0232 83.1637 45.1278 83.1637 43.9273V36.4291C83.1637 35.9174 83.3391 35.4943 83.6898 35.1598C84.0405 34.8055 84.4841 34.6284 85.0206 34.6284Z" fill="#81818B"/>
<path d="M98.0464 34.3333C99.697 34.3333 100.914 34.717 101.698 35.4845C102.482 36.2324 102.998 37.2065 103.245 38.407L102.719 38.1413L102.967 37.669C103.215 37.2163 103.596 36.7342 104.112 36.2225C104.628 35.6912 105.247 35.2484 105.969 34.8941C106.712 34.5202 107.537 34.3333 108.445 34.3333C109.93 34.3333 111.054 34.6383 111.818 35.2483C112.602 35.8584 113.138 36.6752 113.427 37.6986C113.716 38.7022 113.86 39.824 113.86 41.0639V48.6211C113.86 49.1328 113.685 49.5656 113.334 49.92C112.983 50.2547 112.54 50.422 112.004 50.422C111.468 50.422 111.023 50.2547 110.673 49.92C110.322 49.5656 110.147 49.1328 110.147 48.6211V41.0639C110.147 40.4144 110.064 39.8339 109.899 39.3221C109.734 38.7908 109.435 38.3677 109.002 38.0528C108.568 37.7379 107.949 37.5804 107.145 37.5804C106.361 37.5804 105.69 37.7379 105.133 38.0528C104.576 38.3677 104.153 38.7908 103.864 39.3221C103.596 39.8339 103.462 40.4144 103.462 41.0639V48.6211C103.462 49.1328 103.286 49.5656 102.936 49.92C102.586 50.2547 102.141 50.422 101.605 50.422C101.069 50.422 100.625 50.2547 100.275 49.92C99.9238 49.5656 99.7485 49.1328 99.7485 48.6211V41.0639C99.7485 40.4144 99.666 39.8339 99.5007 39.3221C99.3358 38.7908 99.0366 38.3677 98.6034 38.0528C98.1703 37.7379 97.5508 37.5804 96.7465 37.5804C95.9627 37.5804 95.2923 37.7379 94.7347 38.0528C94.1782 38.3677 93.7551 38.7908 93.4663 39.3221C93.198 39.8339 93.0642 40.4144 93.0642 41.0639V48.6211C93.0642 49.1328 92.8888 49.5656 92.5381 49.92C92.1869 50.2547 91.7438 50.422 91.2072 50.422C90.6707 50.422 90.2276 50.2547 89.8764 49.92C89.5257 49.5656 89.3503 49.1328 89.3503 48.6211V36.4292C89.3503 35.9175 89.5257 35.4943 89.8764 35.1598C90.2276 34.8055 90.6707 34.6285 91.2072 34.6285C91.7438 34.6285 92.1869 34.8055 92.5381 35.1598C92.8888 35.4943 93.0642 35.9175 93.0642 36.4292V37.6986L92.5995 37.61C92.7854 37.2754 93.0437 36.9211 93.3734 36.5472C93.7036 36.1536 94.1058 35.7895 94.5804 35.455C95.055 35.1204 95.581 34.8547 96.1585 34.6579C96.7365 34.4415 97.366 34.3333 98.0464 34.3333Z" fill="#81818B"/>
<path d="M119.829 48.6211C119.829 49.1328 119.654 49.5656 119.303 49.92C118.952 50.2547 118.509 50.422 117.972 50.422C117.436 50.422 116.992 50.2547 116.641 49.92C116.291 49.5656 116.116 49.1328 116.116 48.6211V36.4292C116.116 35.9175 116.291 35.4943 116.641 35.1598C116.992 34.8055 117.436 34.6285 117.972 34.6285C118.509 34.6285 118.952 34.8055 119.303 35.1598C119.654 35.4943 119.829 35.9175 119.829 36.4292V48.6211ZM117.941 32.7096C117.24 32.7096 116.745 32.6014 116.456 32.3849C116.167 32.1684 116.023 31.7846 116.023 31.2336V30.6727C116.023 30.102 116.178 29.7182 116.486 29.5214C116.817 29.3049 117.312 29.1967 117.972 29.1967C118.695 29.1967 119.2 29.3049 119.488 29.5214C119.778 29.7379 119.922 30.1217 119.922 30.6727V31.2336C119.922 31.8043 119.767 32.1979 119.457 32.4144C119.149 32.6112 118.643 32.7096 117.941 32.7096Z" fill="#81818B"/>
<path d="M130.949 34.3333C132.476 34.3333 133.631 34.6383 134.415 35.2483C135.22 35.8584 135.767 36.6752 136.055 37.6986C136.365 38.7022 136.519 39.824 136.519 41.0639V48.6211C136.519 49.1328 136.344 49.5656 135.993 49.92C135.643 50.2547 135.199 50.422 134.663 50.422C134.127 50.422 133.683 50.2547 133.332 49.92C132.981 49.5656 132.806 49.1328 132.806 48.6211V41.0639C132.806 40.4144 132.713 39.8339 132.528 39.3221C132.363 38.7908 132.053 38.3677 131.599 38.0528C131.146 37.7379 130.495 37.5804 129.649 37.5804C128.824 37.5804 128.123 37.7379 127.545 38.0528C126.988 38.3677 126.555 38.7908 126.245 39.3221C125.956 39.8339 125.812 40.4144 125.812 41.0639V48.6211C125.812 49.1328 125.637 49.5656 125.286 49.92C124.935 50.2547 124.491 50.422 123.955 50.422C123.419 50.422 122.975 50.2547 122.625 49.92C122.274 49.5656 122.098 49.1328 122.098 48.6211V36.4292C122.098 35.9175 122.274 35.4943 122.625 35.1598C122.975 34.8055 123.419 34.6285 123.955 34.6285C124.491 34.6285 124.935 34.8055 125.286 35.1598C125.637 35.4943 125.812 35.9175 125.812 36.4292V37.6986L125.348 37.61C125.534 37.2754 125.802 36.9211 126.152 36.5472C126.503 36.1536 126.916 35.7895 127.39 35.455C127.865 35.1204 128.401 34.8547 128.999 34.6579C129.598 34.4415 130.248 34.3333 130.949 34.3333Z" fill="#81818B"/>
<path d="M154.893 42.5398C154.893 44.1536 154.511 45.5805 153.748 46.8203C153.005 48.0405 151.994 48.995 150.715 49.6837C149.456 50.3728 148.043 50.7168 146.476 50.7168C144.907 50.7168 143.484 50.3728 142.205 49.6837C140.946 48.995 139.936 48.0405 139.172 46.8203C138.429 45.5805 138.058 44.1536 138.058 42.5398C138.058 40.9261 138.429 39.5091 139.172 38.2889C139.936 37.0491 140.946 36.0848 142.205 35.396C143.484 34.6875 144.907 34.3333 146.476 34.3333C148.043 34.3333 149.456 34.6875 150.715 35.396C151.994 36.0848 153.005 37.0491 153.748 38.2889C154.511 39.5091 154.893 40.9261 154.893 42.5398ZM151.18 42.5398C151.18 41.5362 150.963 40.6703 150.529 39.9421C150.116 39.1942 149.549 38.6137 148.827 38.2004C148.126 37.7871 147.342 37.5804 146.476 37.5804C145.609 37.5804 144.814 37.7871 144.093 38.2004C143.391 38.6137 142.823 39.1942 142.391 39.9421C141.978 40.6703 141.771 41.5362 141.771 42.5398C141.771 43.5239 141.978 44.3898 142.391 45.1377C142.823 45.8658 143.391 46.4365 144.093 46.8498C144.814 47.2632 145.609 47.4697 146.476 47.4697C147.342 47.4697 148.126 47.2632 148.827 46.8498C149.549 46.4365 150.116 45.8658 150.529 45.1377C150.963 44.3898 151.18 43.5239 151.18 42.5398Z" fill="#81818B"/>
<path d="M168.734 34.6284C169.271 34.6284 169.714 34.8055 170.065 35.1598C170.416 35.4943 170.591 35.9174 170.591 36.4291V43.9273C170.591 46.0134 169.982 47.6665 168.765 48.8867C167.547 50.1069 165.795 50.7168 163.504 50.7168C161.214 50.7168 159.46 50.1069 158.243 48.8867C157.046 47.6665 156.448 46.0134 156.448 43.9273V36.4291C156.448 35.9174 156.623 35.4943 156.975 35.1598C157.325 34.8055 157.768 34.6284 158.305 34.6284C158.841 34.6284 159.285 34.8055 159.636 35.1598C159.986 35.4943 160.162 35.9174 160.162 36.4291V43.9273C160.162 45.1278 160.44 46.0232 160.998 46.6136C161.555 47.1844 162.39 47.4697 163.504 47.4697C164.638 47.4697 165.485 47.1844 166.041 46.6136C166.599 46.0232 166.878 45.1278 166.878 43.9273V36.4291C166.878 35.9174 167.053 35.4943 167.403 35.1598C167.754 34.8055 168.198 34.6284 168.734 34.6284Z" fill="#81818B"/>
<path d="M172.104 47.9716C171.898 47.6961 171.805 47.3419 171.826 46.9089C171.847 46.4759 172.115 46.102 172.631 45.7871C172.961 45.5903 173.311 45.5116 173.683 45.551C174.054 45.5707 174.415 45.7477 174.766 46.0823C175.365 46.653 175.994 47.0958 176.654 47.4107C177.314 47.7256 178.139 47.883 179.13 47.883C179.439 47.8633 179.779 47.824 180.151 47.765C180.522 47.6863 180.842 47.5288 181.11 47.2927C181.399 47.0368 181.543 46.653 181.543 46.1413C181.543 45.7084 181.389 45.364 181.079 45.1081C180.77 44.8523 180.357 44.6359 179.841 44.4587C179.346 44.2816 178.789 44.1143 178.17 43.9569C177.53 43.7797 176.87 43.583 176.19 43.3665C175.529 43.15 174.921 42.8745 174.364 42.5398C173.807 42.1856 173.353 41.7232 173.002 41.1524C172.652 40.5817 172.476 39.8633 172.476 38.9975C172.476 38.0134 172.764 37.177 173.342 36.4882C173.92 35.7994 174.663 35.2681 175.571 34.8941C176.499 34.5202 177.468 34.3333 178.48 34.3333C179.119 34.3333 179.789 34.4119 180.491 34.5694C181.192 34.7072 181.863 34.9433 182.503 35.2779C183.142 35.5927 183.679 36.0159 184.112 36.5472C184.339 36.8424 184.473 37.1967 184.514 37.61C184.555 38.0233 184.36 38.3972 183.926 38.7318C183.617 38.9679 183.256 39.0762 182.843 39.0565C182.431 39.0171 182.09 38.8794 181.822 38.6432C181.471 38.2102 180.997 37.8658 180.398 37.61C179.82 37.3542 179.15 37.2262 178.387 37.2262C178.077 37.2262 177.737 37.2656 177.366 37.3443C177.015 37.4033 176.706 37.551 176.437 37.7871C176.169 38.0036 176.035 38.3578 176.035 38.8498C176.035 39.3025 176.19 39.6666 176.499 39.9421C176.808 40.1979 177.221 40.4144 177.737 40.5916C178.273 40.749 178.841 40.9065 179.439 41.0639C180.058 41.2213 180.687 41.4083 181.327 41.6247C181.967 41.8413 182.554 42.1266 183.091 42.4808C183.627 42.8351 184.06 43.2976 184.391 43.8683C184.721 44.4193 184.886 45.1278 184.886 45.9938C184.886 46.9975 184.576 47.8536 183.957 48.562C183.338 49.2706 182.565 49.8117 181.636 50.1857C180.708 50.5401 179.758 50.7168 178.789 50.7168C177.572 50.7168 176.355 50.5204 175.137 50.1267C173.92 49.7132 172.909 48.995 172.104 47.9716Z" fill="#81818B"/>
</svg>
