<svg width="211" height="65" viewBox="0 0 211 65" fill="none" xmlns="http://www.w3.org/2000/svg">
<path d="M76.5796 51.8316C74.2229 51.8316 72.1397 51.3567 70.33 50.4079C68.5198 49.4371 67.1207 48.0673 66.1316 46.2989C65.1431 44.5302 64.6485 42.4487 64.6485 40.0545C64.6485 37.6603 65.1431 35.5789 66.1316 33.8102C67.1207 32.0199 68.5198 30.6503 70.33 29.7012C72.1397 28.7305 74.2229 28.2452 76.5796 28.2452C78.1793 28.2452 79.5889 28.4178 80.8096 28.7629C82.0512 29.0864 83.1873 29.6041 84.2184 30.3159V35.0072C83.2928 34.2308 82.2302 33.67 81.0306 33.3248C79.852 32.9582 78.5053 32.7748 76.9902 32.7748C75.5806 32.7748 74.3069 33.0768 73.1708 33.6807C72.0557 34.2631 71.1716 35.1043 70.5196 36.2043C69.867 37.3044 69.541 38.5877 69.541 40.0545C69.541 41.5428 69.8355 42.8477 70.4245 43.9694C71.0351 45.0694 71.8872 45.9214 72.9813 46.5253C74.0754 47.1293 75.3385 47.4313 76.7692 47.4313C78.0738 47.4313 79.2099 47.194 80.178 46.7195V42.3516H76.6111V38.728H84.8179V49.6314C82.7347 51.098 79.989 51.8316 76.5796 51.8316Z" fill="#81818B"/>
<path d="M85.9262 35.8161H90.5347V38.0486C91.1453 37.2936 91.9973 36.722 93.0914 36.3338C94.1855 35.924 95.4277 35.7191 96.8163 35.7191V39.4398C95.3642 39.4398 94.0805 39.6663 92.9654 40.1192C91.8708 40.5722 91.1132 41.2624 90.6927 42.1899V51.3463H85.9262V35.8161Z" fill="#81818B"/>
<path d="M105.976 51.8316C103.072 51.8316 100.788 51.1195 99.1263 49.6958C97.4636 48.2511 96.6326 46.2342 96.6326 43.6458C96.6326 41.079 97.3691 39.0515 98.8423 37.5633C100.336 36.0749 102.462 35.3308 105.218 35.3308C107.028 35.3308 108.564 35.6759 109.827 36.3661C111.089 37.0563 112.047 38.0162 112.699 39.2456C113.352 40.4535 113.678 41.8232 113.678 43.3546V45.3282H101.178C101.515 47.3127 103.324 48.305 106.607 48.305C107.575 48.305 108.575 48.2187 109.606 48.0459C110.637 47.8734 111.532 47.6361 112.289 47.3342V50.764C111.553 51.0871 110.605 51.3462 109.448 51.5405C108.291 51.7342 107.133 51.8316 105.976 51.8316ZM109.164 42.1575C109.101 41.1222 108.722 40.3241 108.028 39.7633C107.333 39.181 106.376 38.8897 105.155 38.8897C103.956 38.8897 103.009 39.181 102.314 39.7633C101.62 40.3457 101.241 41.1438 101.178 42.1575H109.164Z" fill="#81818B"/>
<path d="M123.447 51.8316C120.544 51.8316 118.26 51.1195 116.598 49.6958C114.936 48.2511 114.104 46.2342 114.104 43.6458C114.104 41.079 114.841 39.0515 116.314 37.5633C117.808 36.0749 119.933 35.3308 122.69 35.3308C124.5 35.3308 126.036 35.6759 127.299 36.3661C128.561 37.0563 129.519 38.0162 130.171 39.2456C130.823 40.4535 131.149 41.8232 131.149 43.3546V45.3282H118.649C118.986 47.3127 120.796 48.305 124.079 48.305C125.047 48.305 126.047 48.2187 127.077 48.0459C128.108 47.8734 129.003 47.6361 129.761 47.3342V50.764C129.024 51.0871 128.077 51.3462 126.92 51.5405C125.762 51.7342 124.605 51.8316 123.447 51.8316ZM126.636 42.1575C126.572 41.1222 126.194 40.3241 125.5 39.7633C124.805 39.181 123.847 38.8897 122.627 38.8897C121.427 38.8897 120.481 39.181 119.786 39.7633C119.092 40.3457 118.713 41.1438 118.649 42.1575H126.636Z" fill="#81818B"/>
<path d="M132.208 35.8161H136.816V37.725C137.511 36.927 138.331 36.3338 139.278 35.9455C140.246 35.5357 141.256 35.3308 142.308 35.3308C144.371 35.3308 145.907 35.9024 146.917 37.0456C147.948 38.1672 148.464 39.6878 148.464 41.6075V51.3462H143.697V42.1575C143.697 40.1516 142.792 39.1486 140.982 39.1486C140.183 39.1486 139.436 39.3535 138.741 39.7633C138.047 40.1516 137.458 40.734 136.974 41.5104V51.3462H132.208V35.8161Z" fill="#81818B"/>
<path d="M152.668 33.4219C151.932 33.4219 151.312 33.1739 150.807 32.6777C150.301 32.1817 150.049 31.5561 150.049 30.8012C150.049 30.0679 150.301 29.4531 150.807 28.957C151.312 28.4394 151.932 28.1805 152.668 28.1805C153.405 28.1805 154.026 28.4394 154.531 28.957C155.036 29.4531 155.289 30.0679 155.289 30.8012C155.289 31.5561 155.036 32.1817 154.531 32.6777C154.026 33.1739 153.405 33.4219 152.668 33.4219ZM150.27 35.8161H155.068V51.3462H150.27V35.8161Z" fill="#81818B"/>
<path d="M163.197 51.8316C162.061 51.8316 160.84 51.7018 159.535 51.4431C158.252 51.2059 157.242 50.8608 156.505 50.4079V46.5901C157.347 47.1077 158.357 47.5283 159.535 47.8518C160.714 48.1752 161.808 48.337 162.818 48.337C163.681 48.337 164.312 48.2616 164.712 48.1108C165.111 47.9597 165.311 47.6793 165.311 47.2695C165.311 46.946 165.196 46.6871 164.964 46.493C164.733 46.2773 164.375 46.0939 163.891 45.943C163.428 45.7704 162.649 45.5224 161.555 45.1988C160.272 44.8106 159.261 44.4223 158.525 44.0341C157.81 43.6242 157.263 43.1174 156.884 42.5134C156.526 41.9095 156.347 41.1329 156.347 40.1839C156.347 38.5662 156.968 37.3583 158.21 36.5603C159.472 35.7406 161.177 35.3308 163.323 35.3308C164.375 35.3308 165.459 35.4494 166.574 35.6867C167.71 35.9024 168.584 36.1936 169.194 36.5603V40.281C168.584 39.8712 167.784 39.5368 166.795 39.278C165.827 39.0192 164.88 38.8897 163.954 38.8897C163.091 38.8897 162.418 38.976 161.934 39.1486C161.472 39.3212 161.24 39.6447 161.24 40.1192C161.24 40.529 161.461 40.8418 161.903 41.0575C162.365 41.2732 163.218 41.5428 164.459 41.8664L165.091 42.0281C166.417 42.3948 167.447 42.8046 168.184 43.2576C168.92 43.689 169.436 44.2174 169.731 44.8429C170.046 45.4469 170.204 46.2126 170.204 47.1401C170.204 48.5637 169.604 49.7068 168.405 50.5697C167.206 51.4107 165.469 51.8316 163.197 51.8316Z" fill="#81818B"/>
<path d="M171.306 27.4364H176.072V37.5956C176.788 36.8407 177.598 36.2799 178.503 35.9132C179.408 35.5249 180.376 35.3308 181.407 35.3308C183.469 35.3308 185.005 35.9024 186.015 37.0456C187.046 38.1672 187.562 39.6878 187.562 41.6076V51.3463H182.796V42.1576C182.796 40.1516 181.891 39.1486 180.081 39.1486C179.281 39.1486 178.535 39.3535 177.84 39.7633C177.145 40.1516 176.556 40.734 176.072 41.5104V51.3463H171.306V27.4364Z" fill="#81818B"/>
<path fill-rule="evenodd" clip-rule="evenodd" d="M48.3703 32.0142C48.3703 36.124 45.1202 39.4556 41.1106 39.4556C37.101 39.4556 33.8507 36.124 33.8507 32.0142C33.8507 27.9044 37.101 24.5728 41.1106 24.5728C45.1202 24.5728 48.3703 27.9044 48.3703 32.0142ZM24.2234 38.9148C32.1329 38.3683 39.0263 44.4383 39.6685 52.5628C39.735 53.4045 39.7318 54.2356 39.6638 55.0504C31.7543 55.5969 24.8609 49.5268 24.2188 41.4024C24.1523 40.5606 24.1554 39.7293 24.2234 38.9148ZM44.7814 54.7659C52.7077 54.1075 58.6294 47.042 58.0965 38.9348C57.3017 38.8651 56.4911 38.8618 55.6694 38.93C47.7432 39.5882 41.8214 46.6539 42.3545 54.7611C43.1492 54.831 43.9601 54.8341 44.7814 54.7659Z" fill="#81818B"/>
</svg>
