<svg width="210" height="65" viewBox="0 0 210 65" fill="none" xmlns="http://www.w3.org/2000/svg">
<path d="M69.4958 48.6351L65.1205 34.4144H68.953L71.5481 44.6498L74.5652 34.4144H78.8503L81.868 44.6498L84.493 34.4144H88.3255L83.9197 48.6351H79.9066L76.7078 37.9982L73.5095 48.6351H69.4958Z" fill="#81818B"/>
<path d="M93.9488 48.9793C92.6615 48.9793 91.6052 48.7877 90.7804 48.4055C89.9562 48.0042 89.3424 47.4786 88.9398 46.8287C88.5376 46.1788 88.3365 45.4621 88.3365 44.6785C88.3365 43.3597 88.8794 42.2893 89.9656 41.4674C91.0519 40.6455 92.682 40.2346 94.8544 40.2346H98.6565V39.8905C98.6565 38.9157 98.3646 38.199 97.7813 37.7402C97.198 37.2815 96.4735 37.0522 95.6089 37.0522C94.824 37.0522 94.1399 37.2337 93.5566 37.5969C92.9734 37.9409 92.6111 38.457 92.4704 39.1451H88.6983C88.7991 38.113 89.1613 37.2146 89.7845 36.45C90.4287 35.6855 91.2535 35.1025 92.2588 34.7012C93.2653 34.2807 94.3914 34.0704 95.6388 34.0704C97.7713 34.0704 99.4508 34.5769 100.678 35.5899C101.905 36.603 102.519 38.0366 102.519 39.8905V48.6351H99.2292L98.8675 46.3416C98.425 47.1061 97.8012 47.7366 96.9969 48.2338C96.2121 48.7306 95.1962 48.9793 93.9488 48.9793ZM94.824 46.112C95.9307 46.112 96.7854 45.7678 97.3886 45.0798C98.0123 44.3919 98.405 43.5411 98.5662 42.5282H95.2765C94.2507 42.5282 93.5167 42.7098 93.0736 43.0729C92.6316 43.4168 92.41 43.8472 92.41 44.3631C92.41 44.9175 92.6316 45.3475 93.0736 45.6532C93.5167 45.9589 94.0995 46.112 94.824 46.112Z" fill="#81818B"/>
<path d="M108.599 48.6351L103.107 34.4144H107.15L110.952 45.1661L114.755 34.4144H118.798L113.276 48.6351H108.599Z" fill="#81818B"/>
<path fill-rule="evenodd" clip-rule="evenodd" d="M29.4154 29.9705C32.1557 26.4682 36.5439 24.1993 41.4899 24.1993C46.4649 24.1993 50.8754 26.495 53.6125 30.0324C53.4959 30.1462 53.3899 30.2642 53.2938 30.382C52.7924 30.9988 52.4152 31.7934 52.113 32.6003C51.5044 34.2231 51.0402 36.3429 50.6105 38.3278L50.5723 38.5063C50.1434 40.4876 49.7448 42.3303 49.2629 43.6982C49.0464 44.3127 48.8411 44.7472 48.659 45.0254C48.469 44.7449 48.2534 44.3052 48.0253 43.6818C47.5098 42.2747 47.0763 40.3607 46.6167 38.317L46.6018 38.2501C46.1602 36.2871 45.6917 34.2043 45.1076 32.61C44.8142 31.8091 44.4542 31.0225 43.9832 30.4113C43.5211 29.8116 42.7517 29.1347 41.6266 29.1347C40.5085 29.1347 39.7356 29.8042 39.2667 30.3972C38.7867 31.0045 38.4125 31.7878 38.1042 32.5891C37.4834 34.2026 36.9758 36.3133 36.5034 38.301L36.4546 38.5063C35.9869 40.4753 35.5496 42.3162 35.0532 43.6867C34.8637 44.21 34.6849 44.6083 34.5231 44.8927C34.3649 44.6096 34.1905 44.214 34.0062 43.6951C33.53 42.3538 33.1128 40.5644 32.6648 38.6426L32.5864 38.3063C32.1222 36.3174 31.6185 34.2029 30.9889 32.5843C30.676 31.7801 30.2933 30.9928 29.7982 30.3828C29.686 30.2447 29.5586 30.1045 29.4154 29.9705ZM27.7569 32.6596C27.8874 32.9045 28.0254 33.208 28.1682 33.575C28.7132 34.976 29.175 36.8877 29.6505 38.9249L29.743 39.3219C30.1759 41.1807 30.6263 43.1144 31.1568 44.6083C31.4389 45.4028 31.7796 46.181 32.2178 46.7858C32.6322 47.3578 33.3756 48.0967 34.5186 48.0967C35.6584 48.0967 36.4036 47.3614 36.8208 46.792C37.2627 46.1886 37.609 45.4112 37.8968 44.6162C38.4486 43.0927 38.9184 41.1138 39.368 39.2199L39.4368 38.9303C39.9212 36.8918 40.3876 34.9763 40.9286 33.5702C41.1793 32.9187 41.4139 32.4649 41.6182 32.1833C41.8118 32.4625 42.033 32.9091 42.2676 33.5493C42.7832 34.9566 43.2163 36.8705 43.676 38.9142L43.691 38.9811C44.1325 40.9441 44.601 43.027 45.1851 44.6211C45.4785 45.4223 45.8386 46.2089 46.3095 46.8199C46.7718 47.4198 47.541 48.0967 48.666 48.0967C49.797 48.0967 50.5634 47.4136 51.0202 46.8084C51.484 46.1943 51.8327 45.405 52.1144 44.6052C52.6559 43.0687 53.0864 41.0752 53.497 39.1788L53.5558 38.9034C53.9978 36.8622 54.422 34.9558 54.946 33.559C55.0594 33.2551 55.1712 32.996 55.2778 32.7784C56.0805 34.5265 56.5257 36.4567 56.5257 38.4857C56.5257 46.3757 49.7942 52.7721 41.4899 52.7721C33.1857 52.7721 26.4539 46.3757 26.4539 38.4857C26.4539 36.4106 26.9195 34.4388 27.7569 32.6596ZM41.4899 21.342C31.5249 21.342 23.4467 29.0175 23.4467 38.4857C23.4467 47.9538 31.5249 55.6292 41.4899 55.6292C51.4551 55.6292 59.5329 47.9538 59.5329 38.4857C59.5329 29.0175 51.4551 21.342 41.4899 21.342ZM41.8336 31.9442C41.8336 31.9442 41.8301 31.9472 41.8231 31.9511C41.8301 31.9458 41.8336 31.9442 41.8336 31.9442ZM41.418 31.9461C41.411 31.9421 41.4075 31.9389 41.4075 31.9389C41.4075 31.9389 41.4111 31.9406 41.418 31.9461ZM48.4373 45.2966C48.4373 45.2966 48.4406 45.2935 48.4471 45.2896C48.4406 45.2949 48.4373 45.2966 48.4373 45.2966ZM48.8746 45.2851C48.8815 45.2891 48.8853 45.2922 48.8853 45.2922C48.8853 45.2922 48.8815 45.2904 48.8746 45.2851ZM34.2105 45.3223C34.2105 45.3223 34.2148 45.3178 34.2234 45.3121C34.2148 45.3196 34.2105 45.3223 34.2105 45.3223ZM34.8195 45.3148C34.8281 45.3205 34.8324 45.3249 34.8324 45.3249C34.8324 45.3249 34.828 45.3227 34.8195 45.3148Z" fill="#81818B"/>
<path d="M126.562 48.9793C125.054 48.9793 123.716 48.6732 122.549 48.0617C121.383 47.4498 120.468 46.5898 119.803 45.4811C119.139 44.3728 118.808 43.092 118.808 41.6394C118.808 40.1677 119.13 38.8584 119.773 37.7116C120.437 36.5648 121.342 35.676 122.489 35.0452C123.655 34.3954 125.023 34.0704 126.593 34.0704C128.061 34.0704 129.359 34.3762 130.486 34.9879C131.612 35.5995 132.487 36.4405 133.111 37.5109C133.754 38.5621 134.077 39.7376 134.077 41.0373C134.077 41.2476 134.066 41.4674 134.046 41.6967C134.046 41.9262 134.036 42.165 134.016 42.4135H122.64C122.72 43.5221 123.123 44.3919 123.847 45.0228C124.591 45.6532 125.487 45.9687 126.533 45.9687C127.317 45.9687 127.971 45.8063 128.494 45.4811C129.037 45.1373 129.439 44.6976 129.701 44.1622H133.623C133.342 45.0608 132.869 45.8828 132.205 46.6283C131.561 47.3543 130.757 47.9277 129.791 48.3484C128.846 48.7687 127.769 48.9793 126.562 48.9793ZM126.593 37.0522C125.648 37.0522 124.812 37.3102 124.088 37.8262C123.364 38.3232 122.901 39.0878 122.7 40.1199H130.153C130.093 39.1833 129.731 38.4379 129.067 37.8836C128.403 37.3293 127.579 37.0522 126.593 37.0522Z" fill="#81818B"/>
<path d="M136.118 48.635V27.9922H139.98V48.635H136.118Z" fill="#81818B"/>
<path d="M149.991 48.9793C148.483 48.9793 147.145 48.6732 145.978 48.0617C144.812 47.4498 143.897 46.5898 143.233 45.4811C142.568 44.3728 142.237 43.092 142.237 41.6394C142.237 40.1677 142.559 38.8584 143.202 37.7116C143.866 36.5648 144.771 35.676 145.918 35.0452C147.085 34.3954 148.453 34.0704 150.022 34.0704C151.49 34.0704 152.788 34.3762 153.915 34.9879C155.041 35.5995 155.917 36.4405 156.54 37.5109C157.183 38.5621 157.506 39.7376 157.506 41.0373C157.506 41.2476 157.495 41.4674 157.475 41.6967C157.475 41.9262 157.465 42.165 157.445 42.4135H146.069C146.149 43.5221 146.552 44.3919 147.276 45.0228C148.02 45.6532 148.916 45.9687 149.962 45.9687C150.746 45.9687 151.4 45.8063 151.923 45.4811C152.466 45.1373 152.868 44.6976 153.13 44.1622H157.053C156.771 45.0608 156.298 45.8828 155.635 46.6283C154.99 47.3543 154.186 47.9277 153.22 48.3484C152.275 48.7687 151.199 48.9793 149.991 48.9793ZM150.022 37.0522C149.077 37.0522 148.242 37.3102 147.517 37.8262C146.793 38.3232 146.331 39.0878 146.129 40.1199H153.582C153.522 39.1833 153.16 38.4379 152.496 37.8836C151.832 37.3293 151.008 37.0522 150.022 37.0522Z" fill="#81818B"/>
<path d="M165.733 48.9793C164.405 48.9793 163.238 48.7784 162.233 48.3772C161.226 47.9564 160.422 47.3831 159.818 46.6566C159.215 45.9306 158.853 45.0896 158.732 44.134H162.625C162.745 44.6878 163.068 45.1661 163.591 45.5674C164.133 45.9496 164.827 46.1408 165.672 46.1408C166.517 46.1408 167.131 45.9784 167.513 45.6532C167.915 45.3285 168.117 44.9555 168.117 44.5352C168.117 43.9234 167.835 43.5124 167.272 43.3022C166.709 43.0729 165.924 42.8532 164.918 42.6429C164.275 42.5091 163.621 42.3466 162.957 42.1555C162.293 41.9644 161.68 41.7254 161.116 41.4388C160.573 41.1329 160.13 40.7506 159.788 40.2919C159.446 39.814 159.276 39.2311 159.276 38.543C159.276 37.2815 159.798 36.2207 160.845 35.3606C161.911 34.5005 163.399 34.0704 165.31 34.0704C167.081 34.0704 168.489 34.4622 169.535 35.2459C170.601 36.0296 171.235 37.1095 171.436 38.4857H167.785C167.563 37.4344 166.728 36.9088 165.281 36.9088C164.556 36.9088 163.993 37.0426 163.591 37.3102C163.208 37.5778 163.017 37.9122 163.017 38.3136C163.017 38.7342 163.309 39.0686 163.892 39.3171C164.476 39.5656 165.25 39.7949 166.216 40.0052C167.261 40.2346 168.217 40.4926 169.082 40.7793C169.967 41.0469 170.671 41.4579 171.195 42.0122C171.718 42.5473 171.979 43.3212 171.979 44.3343C171.999 45.2139 171.757 46.0067 171.255 46.7141C170.752 47.4211 170.028 47.9754 169.082 48.3772C168.137 48.7784 167.02 48.9793 165.733 48.9793Z" fill="#81818B"/>
<path d="M180.379 48.9793C179.052 48.9793 177.885 48.7784 176.879 48.3772C175.873 47.9564 175.069 47.3831 174.465 46.6566C173.862 45.9306 173.499 45.0896 173.379 44.134H177.272C177.392 44.6878 177.714 45.1661 178.237 45.5674C178.78 45.9496 179.474 46.1408 180.319 46.1408C181.164 46.1408 181.778 45.9784 182.16 45.6532C182.562 45.3285 182.764 44.9555 182.764 44.5352C182.764 43.9234 182.482 43.5124 181.918 43.3022C181.355 43.0729 180.571 42.8532 179.565 42.6429C178.921 42.5091 178.267 42.3466 177.603 42.1555C176.94 41.9644 176.326 41.7254 175.763 41.4388C175.22 41.1329 174.777 40.7506 174.435 40.2919C174.093 39.814 173.922 39.2311 173.922 38.543C173.922 37.2815 174.445 36.2207 175.491 35.3606C176.558 34.5005 178.046 34.0704 179.957 34.0704C181.727 34.0704 183.135 34.4622 184.182 35.2459C185.247 36.0296 185.881 37.1095 186.083 38.4857H182.431C182.21 37.4344 181.375 36.9088 179.927 36.9088C179.202 36.9088 178.639 37.0426 178.237 37.3102C177.855 37.5778 177.664 37.9122 177.664 38.3136C177.664 38.7342 177.955 39.0686 178.539 39.3171C179.122 39.5656 179.896 39.7949 180.862 40.0052C181.908 40.2346 182.864 40.4926 183.729 40.7793C184.614 41.0469 185.318 41.4579 185.841 42.0122C186.364 42.5473 186.626 43.3212 186.626 44.3343C186.646 45.2139 186.404 46.0067 185.901 46.7141C185.398 47.4211 184.675 47.9754 183.729 48.3772C182.783 48.7784 181.667 48.9793 180.379 48.9793Z" fill="#81818B"/>
</svg>
