<svg width="211" height="65" viewBox="0 0 211 65" fill="none" xmlns="http://www.w3.org/2000/svg">
<path d="M71.9413 30.8004C73.5289 30.8004 74.9028 31.0559 76.0636 31.567C77.2412 32.0781 78.1452 32.8034 78.7768 33.7432C79.4084 34.6829 79.7244 35.7957 79.7244 37.0816C79.7244 38.351 79.4084 39.4638 78.7768 40.42C78.1452 41.3597 77.2412 42.0851 76.0636 42.5964C74.9028 43.0907 73.5289 43.3381 71.9413 43.3381H68.3319V48.1109H64.1849V30.8004H71.9413ZM71.7113 40.0738C72.9566 40.0738 73.9043 39.8183 74.5526 39.3072C75.2015 38.7796 75.5255 38.0378 75.5255 37.0816C75.5255 36.1089 75.2015 35.367 74.5526 34.856C73.9043 34.3284 72.9566 34.0647 71.7113 34.0647H68.3319V40.0738H71.7113Z" fill="#81818B"/>
<path d="M84.9382 36.5623C85.4154 35.9194 86.0559 35.433 86.8576 35.1033C87.6771 34.7736 88.6153 34.6088 89.6737 34.6088V38.1697C89.2301 38.1368 88.9313 38.1203 88.7775 38.1203C87.6341 38.1203 86.7384 38.4335 86.09 39.06C85.4411 39.6699 85.1167 40.5932 85.1167 41.8296V48.111H81.1235V34.8066H84.9382V36.5623Z" fill="#81818B"/>
<path d="M97.197 48.3085C95.7464 48.3085 94.4407 48.0203 93.2805 47.4431C92.137 46.8498 91.2408 46.0334 90.5925 44.9948C89.9441 43.9562 89.6196 42.7774 89.6196 41.4587C89.6196 40.1398 89.9441 38.9611 90.5925 37.9224C91.2408 36.8838 92.137 36.076 93.2805 35.499C94.4407 34.9055 95.7464 34.6088 97.197 34.6088C98.6475 34.6088 99.9448 34.9055 101.088 35.499C102.232 36.076 103.128 36.8838 103.777 37.9224C104.425 38.9611 104.749 40.1398 104.749 41.4587C104.749 42.7774 104.425 43.9562 103.777 44.9948C103.128 46.0334 102.232 46.8498 101.088 47.4431C99.9448 48.0203 98.6475 48.3085 97.197 48.3085ZM97.197 45.1432C98.2212 45.1432 99.0576 44.8138 99.7059 44.1541C100.372 43.4783 100.704 42.5799 100.704 41.4587C100.704 40.3377 100.372 39.4474 99.7059 38.7879C99.0576 38.112 98.2212 37.774 97.197 37.774C96.1732 37.774 95.3285 38.112 94.6628 38.7879C93.9971 39.4474 93.6642 40.3377 93.6642 41.4587C93.6642 42.5799 93.9971 43.4783 94.6628 44.1541C95.3285 44.8138 96.1732 45.1432 97.197 45.1432Z" fill="#81818B"/>
<path d="M122.856 30.8004V48.1109H119.451L110.516 37.6009V48.1109H106.42V30.8004H109.851L118.76 41.3103V30.8004H122.856Z" fill="#81818B"/>
<path d="M131.089 34.6088C133.222 34.6088 134.861 35.1033 136.004 36.0925C137.148 37.0652 137.72 38.5407 137.72 40.519V48.111H133.982V46.4539C133.231 47.6905 131.832 48.3085 129.784 48.3085C128.725 48.3085 127.803 48.1357 127.019 47.7894C126.251 47.4431 125.662 46.9652 125.252 46.355C124.843 45.7452 124.638 45.0525 124.638 44.2778C124.638 43.0413 125.116 42.0687 126.071 41.3598C127.044 40.6509 128.538 40.2965 130.552 40.2965H133.726C133.726 39.4556 133.462 38.8127 132.932 38.3676C132.403 37.9059 131.61 37.6751 130.552 37.6751C129.818 37.6751 129.092 37.7905 128.376 38.0214C127.676 38.2357 127.078 38.5325 126.583 38.9116L125.15 36.2161C125.901 35.7051 126.796 35.3094 127.838 35.0291C128.896 34.7489 129.98 34.6088 131.089 34.6088ZM130.782 45.7122C131.465 45.7122 132.071 45.5638 132.599 45.2669C133.128 44.9536 133.504 44.5004 133.726 43.9067V42.547H130.987C129.348 42.547 128.529 43.066 128.529 44.1047C128.529 44.5994 128.725 44.9948 129.118 45.2917C129.527 45.572 130.082 45.7122 130.782 45.7122Z" fill="#81818B"/>
<path d="M148.937 47.4678C148.545 47.7481 148.058 47.9625 147.478 48.1109C146.915 48.2425 146.318 48.3084 145.686 48.3084C144.048 48.3084 142.776 47.9048 141.872 47.0971C140.984 46.289 140.54 45.102 140.54 43.536V38.0708H138.416V35.1033H140.54V31.8638H144.534V35.1033H147.964V38.0708H144.534V43.4865C144.534 44.0469 144.679 44.4839 144.969 44.7972C145.276 45.0937 145.703 45.2421 146.249 45.2421C146.881 45.2421 147.418 45.0772 147.862 44.7478L148.937 47.4678Z" fill="#81818B"/>
<path d="M163.775 34.8066V48.111H159.986V46.5282C159.457 47.105 158.825 47.5503 158.091 47.8637C157.357 48.1605 156.564 48.3085 155.71 48.3085C153.901 48.3085 152.468 47.806 151.41 46.8003C150.351 45.7947 149.822 44.3026 149.822 42.3244V34.8066H153.816V41.7554C153.816 43.8985 154.746 44.9701 156.606 44.9701C157.562 44.9701 158.331 44.6737 158.911 44.0799C159.49 43.4701 159.781 42.5718 159.781 41.3846V34.8066H163.775Z" fill="#81818B"/>
<path d="M170.009 36.5623C170.486 35.9194 171.127 35.433 171.929 35.1033C172.748 34.7736 173.687 34.6088 174.745 34.6088V38.1697C174.301 38.1368 174.002 38.1203 173.849 38.1203C172.705 38.1203 171.809 38.4335 171.161 39.06C170.512 39.6699 170.188 40.5932 170.188 41.8296V48.111H166.195V34.8066H170.009V36.5623Z" fill="#81818B"/>
<path d="M189.206 41.5084C189.206 41.5574 189.181 41.9037 189.129 42.547H178.71C178.897 43.3712 179.341 44.0222 180.041 44.5004C180.741 44.9783 181.611 45.2174 182.652 45.2174C183.369 45.2174 184 45.1185 184.546 44.9206C185.11 44.7066 185.631 44.3768 186.108 43.9315L188.233 46.1571C186.936 47.5915 185.042 48.3085 182.549 48.3085C180.997 48.3085 179.623 48.0203 178.428 47.4431C177.233 46.8498 176.312 46.0334 175.663 44.9948C175.015 43.9562 174.691 42.7774 174.691 41.4587C174.691 40.1563 175.006 38.9858 175.638 37.9472C176.286 36.892 177.165 36.076 178.274 35.499C179.401 34.9055 180.655 34.6088 182.038 34.6088C183.386 34.6088 184.606 34.889 185.699 35.4495C186.791 36.01 187.644 36.8179 188.259 37.873C188.89 38.9116 189.206 40.1233 189.206 41.5084ZM182.063 37.5268C181.159 37.5268 180.399 37.774 179.785 38.2686C179.17 38.7633 178.795 39.4392 178.659 40.2965H185.443C185.306 39.4556 184.93 38.7879 184.316 38.2934C183.702 37.7823 182.951 37.5268 182.063 37.5268Z" fill="#81818B"/>
<path fill-rule="evenodd" clip-rule="evenodd" d="M41.4411 21.1602C40.8327 20.8201 40.0824 20.8201 39.4739 21.1602C35.1519 23.5752 32.2368 28.0939 32.2368 33.2725C32.2368 34.0105 32.2961 34.7352 32.4101 35.4423C29.4349 34.4663 26.2134 34.8214 23.5821 36.286C22.973 36.6251 22.5979 37.2526 22.5985 37.9317C22.6016 41.5141 24.5281 45.0055 27.9784 46.9297C29.6712 47.8739 31.5187 48.3225 33.3411 48.3233C33.0638 49.0824 32.9129 49.8987 32.9129 50.7493C32.9129 54.7743 36.2907 58.0366 40.4572 58.0366C44.624 58.0366 48.0015 54.7743 48.0015 50.7493C48.0015 49.8966 47.85 49.0786 47.5717 48.3184C49.2854 48.266 51.0115 47.8166 52.601 46.9297C56.0517 45.0055 57.9779 41.5141 57.9805 37.9318C57.9816 37.2528 57.6062 36.6252 56.9972 36.2862C54.4698 34.8792 51.3973 34.4961 48.5222 35.3333C48.6251 34.6608 48.678 33.9727 48.678 33.2725C48.678 28.0939 45.7632 23.5752 41.4411 21.1602ZM36.1656 33.2725C36.1656 29.9096 37.8512 26.9253 40.4575 25.0677C43.0639 26.9253 44.7495 29.9096 44.7495 33.2725C44.7495 36.6352 43.0639 39.6196 40.4575 41.4771C37.8512 39.6196 36.1656 36.6352 36.1656 33.2725ZM48.2046 39.5744C50.0187 38.5626 52.1149 38.445 53.9459 39.0851C53.6046 40.937 52.4507 42.6315 50.6367 43.6433C48.8227 44.655 46.7266 44.7725 44.8955 44.1327C45.2369 42.2806 46.3906 40.5861 48.2046 39.5744ZM26.6336 39.085C28.4646 38.4448 30.5607 38.5625 32.3747 39.5742C34.1889 40.5859 35.3424 42.2806 35.684 44.1322C33.8529 44.7725 31.7569 44.655 29.9428 43.6433C28.1288 42.6315 26.9752 40.9368 26.6336 39.085ZM36.8417 50.7493C36.8417 48.8205 38.4604 47.2567 40.4572 47.2567C42.4541 47.2567 44.073 48.8205 44.073 50.7493C44.073 52.678 42.4541 54.2419 40.4572 54.2419C38.4604 54.2419 36.8417 52.678 36.8417 50.7493Z" fill="#81818B"/>
</svg>
