<svg width="123" height="123" viewBox="0 0 123 123" fill="none" xmlns="http://www.w3.org/2000/svg">
<rect x="0.895004" y="0.4375" width="9.97355" height="10" rx="4.98677" fill="#81818B" fill-opacity="0.2"/>
<rect x="16.8527" y="0.4375" width="9.97355" height="10" rx="4.98677" fill="#81818B" fill-opacity="0.2"/>
<rect x="32.8103" y="0.4375" width="9.97355" height="10" rx="4.98677" fill="#81818B" fill-opacity="0.2"/>
<rect x="48.768" y="0.4375" width="9.97355" height="10" rx="4.98677" fill="#81818B" fill-opacity="0.2"/>
<rect x="64.7257" y="0.4375" width="9.97355" height="10" rx="4.98677" fill="#81818B" fill-opacity="0.2"/>
<rect x="80.6834" y="0.4375" width="9.97355" height="10" rx="4.98677" fill="#81818B" fill-opacity="0.2"/>
<rect x="96.641" y="0.4375" width="9.97355" height="10" rx="4.98677" fill="#81818B" fill-opacity="0.2"/>
<rect x="112.599" y="0.4375" width="9.97355" height="10" rx="4.98677" fill="#81818B" fill-opacity="0.2"/>
<rect x="0.895004" y="16.4375" width="9.97355" height="10" rx="4.98677" fill="#81818B" fill-opacity="0.2"/>
<rect x="16.8527" y="16.4375" width="9.97355" height="10" rx="4.98677" fill="#81818B" fill-opacity="0.2"/>
<rect x="32.8103" y="16.4375" width="9.97355" height="10" rx="4.98677" fill="#81818B" fill-opacity="0.2"/>
<rect x="48.768" y="16.4375" width="9.97355" height="10" rx="4.98677" fill="#81818B" fill-opacity="0.2"/>
<rect x="64.7257" y="16.4375" width="9.97355" height="10" rx="4.98677" fill="#81818B" fill-opacity="0.2"/>
<rect x="80.6834" y="16.4375" width="9.97355" height="10" rx="4.98677" fill="#81818B" fill-opacity="0.2"/>
<rect x="96.641" y="16.4375" width="9.97355" height="10" rx="4.98677" fill="#81818B" fill-opacity="0.2"/>
<rect x="112.599" y="16.4375" width="9.97355" height="10" rx="4.98677" fill="#81818B" fill-opacity="0.2"/>
<rect x="0.895004" y="32.4375" width="9.97355" height="10" rx="4.98677" fill="#81818B" fill-opacity="0.2"/>
<rect x="16.8527" y="32.4375" width="9.97355" height="10" rx="4.98677" fill="#81818B" fill-opacity="0.2"/>
<rect x="32.8103" y="32.4375" width="9.97355" height="10" rx="4.98677" fill="#81818B" fill-opacity="0.2"/>
<rect x="48.768" y="32.4375" width="9.97355" height="10" rx="4.98677" fill="#81818B" fill-opacity="0.2"/>
<rect x="64.7257" y="32.4375" width="9.97355" height="10" rx="4.98677" fill="#81818B" fill-opacity="0.2"/>
<rect x="80.6834" y="32.4375" width="9.97355" height="10" rx="4.98677" fill="#81818B" fill-opacity="0.2"/>
<rect x="96.641" y="32.4375" width="9.97355" height="10" rx="4.98677" fill="#81818B" fill-opacity="0.2"/>
<rect x="112.599" y="32.4375" width="9.97355" height="10" rx="4.98677" fill="#81818B" fill-opacity="0.2"/>
<rect x="0.895004" y="48.4375" width="9.97355" height="10" rx="4.98677" fill="#81818B" fill-opacity="0.2"/>
<rect x="16.8527" y="48.4375" width="9.97355" height="10" rx="4.98677" fill="#81818B" fill-opacity="0.2"/>
<rect x="32.8103" y="48.4375" width="9.97355" height="10" rx="4.98677" fill="#81818B" fill-opacity="0.2"/>
<rect x="48.768" y="48.4375" width="9.97355" height="10" rx="4.98677" fill="#81818B" fill-opacity="0.2"/>
<rect x="64.7257" y="48.4375" width="9.97355" height="10" rx="4.98677" fill="#81818B" fill-opacity="0.2"/>
<rect x="80.6834" y="48.4375" width="9.97355" height="10" rx="4.98677" fill="#81818B" fill-opacity="0.2"/>
<rect x="96.641" y="48.4375" width="9.97355" height="10" rx="4.98677" fill="#81818B" fill-opacity="0.2"/>
<rect x="112.599" y="48.4375" width="9.97355" height="10" rx="4.98677" fill="#81818B" fill-opacity="0.2"/>
<rect x="0.895004" y="64.4375" width="9.97355" height="10" rx="4.98677" fill="#81818B" fill-opacity="0.2"/>
<rect x="16.8527" y="64.4375" width="9.97355" height="10" rx="4.98677" fill="#81818B" fill-opacity="0.2"/>
<rect x="32.8103" y="64.4375" width="9.97355" height="10" rx="4.98677" fill="#81818B" fill-opacity="0.2"/>
<rect x="48.768" y="64.4375" width="9.97355" height="10" rx="4.98677" fill="#81818B" fill-opacity="0.2"/>
<rect x="64.7257" y="64.4375" width="9.97355" height="10" rx="4.98677" fill="#81818B" fill-opacity="0.2"/>
<rect x="80.6834" y="64.4375" width="9.97355" height="10" rx="4.98677" fill="#81818B" fill-opacity="0.2"/>
<rect x="96.641" y="64.4375" width="9.97355" height="10" rx="4.98677" fill="#81818B" fill-opacity="0.2"/>
<rect x="112.599" y="64.4375" width="9.97355" height="10" rx="4.98677" fill="#81818B" fill-opacity="0.2"/>
<rect x="0.895004" y="80.4375" width="9.97355" height="10" rx="4.98677" fill="#81818B" fill-opacity="0.2"/>
<rect x="16.8527" y="80.4375" width="9.97355" height="10" rx="4.98677" fill="#81818B" fill-opacity="0.2"/>
<rect x="32.8103" y="80.4375" width="9.97355" height="10" rx="4.98677" fill="#81818B" fill-opacity="0.2"/>
<rect x="48.768" y="80.4375" width="9.97355" height="10" rx="4.98677" fill="#81818B" fill-opacity="0.2"/>
<rect x="64.7257" y="80.4375" width="9.97355" height="10" rx="4.98677" fill="#81818B" fill-opacity="0.2"/>
<rect x="80.6834" y="80.4375" width="9.97355" height="10" rx="4.98677" fill="#81818B" fill-opacity="0.2"/>
<rect x="96.641" y="80.4375" width="9.97355" height="10" rx="4.98677" fill="#81818B" fill-opacity="0.2"/>
<rect x="112.599" y="80.4375" width="9.97355" height="10" rx="4.98677" fill="#81818B" fill-opacity="0.2"/>
<rect x="0.895004" y="96.4375" width="9.97355" height="10" rx="4.98677" fill="#81818B" fill-opacity="0.2"/>
<rect x="16.8527" y="96.4375" width="9.97355" height="10" rx="4.98677" fill="#81818B" fill-opacity="0.2"/>
<rect x="32.8103" y="96.4375" width="9.97355" height="10" rx="4.98677" fill="#81818B" fill-opacity="0.2"/>
<rect x="48.768" y="96.4375" width="9.97355" height="10" rx="4.98677" fill="#81818B" fill-opacity="0.2"/>
<rect x="64.7257" y="96.4375" width="9.97355" height="10" rx="4.98677" fill="#81818B" fill-opacity="0.2"/>
<rect x="80.6834" y="96.4375" width="9.97355" height="10" rx="4.98677" fill="#81818B" fill-opacity="0.2"/>
<rect x="96.641" y="96.4375" width="9.97355" height="10" rx="4.98677" fill="#81818B" fill-opacity="0.2"/>
<rect x="112.599" y="96.4375" width="9.97355" height="10" rx="4.98677" fill="#81818B" fill-opacity="0.2"/>
<rect x="0.895004" y="112.438" width="9.97355" height="10" rx="4.98677" fill="#81818B" fill-opacity="0.2"/>
<rect x="16.8527" y="112.438" width="9.97355" height="10" rx="4.98677" fill="#81818B" fill-opacity="0.2"/>
<rect x="32.8103" y="112.438" width="9.97355" height="10" rx="4.98677" fill="#81818B" fill-opacity="0.2"/>
<rect x="48.768" y="112.438" width="9.97355" height="10" rx="4.98677" fill="#81818B" fill-opacity="0.2"/>
<rect x="64.7257" y="112.438" width="9.97355" height="10" rx="4.98677" fill="#81818B" fill-opacity="0.2"/>
<rect x="80.6834" y="112.438" width="9.97355" height="10" rx="4.98677" fill="#81818B" fill-opacity="0.2"/>
<rect x="96.641" y="112.438" width="9.97355" height="10" rx="4.98677" fill="#81818B" fill-opacity="0.2"/>
<rect x="112.599" y="112.438" width="9.97355" height="10" rx="4.98677" fill="#81818B" fill-opacity="0.2"/>
</svg>
