<svg width="138" height="34" viewBox="0 0 138 34" fill="none" xmlns="http://www.w3.org/2000/svg">
<path d="M51.2936 12.6952C50.9456 12.0574 50.4427 11.575 49.7852 11.2481C49.1458 10.9029 48.3883 10.7313 47.5126 10.7333C45.9983 10.7367 44.7862 11.2411 43.8762 12.2466C42.9662 13.2338 42.5131 14.5576 42.5168 16.2178C42.5208 17.9875 42.9983 19.3731 43.9492 20.3744C44.9184 21.3574 46.2422 21.847 47.9207 21.8433C49.0701 21.8407 50.0364 21.5466 50.8196 20.961C51.6211 20.3754 52.2029 19.5348 52.5654 18.4394L46.6268 18.4527L46.6191 15.0045L56.7995 14.9816L56.8093 19.3329C56.4653 20.5013 55.8747 21.5883 55.0377 22.5936C54.219 23.5988 53.1717 24.4131 51.896 25.0363C50.6203 25.6594 49.1797 25.9728 47.5742 25.9764C45.6767 25.9807 43.9791 25.574 42.4812 24.7564C41.0015 23.9205 39.8404 22.7645 38.9978 21.2886C38.1735 19.8126 37.7592 18.126 37.755 16.2285C37.7507 14.3311 38.1574 12.6426 38.9751 11.1629C39.811 9.66502 40.9669 8.50387 42.4429 7.67955C43.9188 6.83702 45.6054 6.41358 47.5029 6.40932C49.8017 6.40416 51.7368 6.95631 53.3084 8.06567C54.8981 9.17498 55.9507 10.7143 56.4659 12.6836L51.2936 12.6952ZM64.0671 13.077C64.6126 12.2366 65.2952 11.5782 66.1152 11.102C66.9351 10.6076 67.8468 10.3592 68.8502 10.357L68.8613 15.3103L67.5751 15.3132C66.4075 15.3158 65.5323 15.5733 64.9496 16.0854C64.3668 16.5793 64.0769 17.4557 64.0798 18.7145L64.0957 25.8025L59.416 25.813L59.3817 10.5424L64.0614 10.5319L64.0671 13.077ZM78.0733 25.9901C76.5771 25.9934 75.2264 25.6772 74.0208 25.0413C72.8335 24.4054 71.8918 23.4954 71.1959 22.311C70.5182 21.1266 70.1776 19.7408 70.174 18.1535C70.1705 16.5845 70.514 15.2063 71.2047 14.0188C71.8952 12.8131 72.8419 11.8897 74.0446 11.2484C75.2473 10.6071 76.5966 10.2848 78.0927 10.2815C79.5887 10.2781 80.9396 10.5943 82.1452 11.2302C83.3507 11.8661 84.3015 12.7853 84.9975 13.9879C85.6934 15.1722 86.0432 16.5489 86.0467 18.1179C86.0502 19.687 85.6976 21.0743 84.9887 22.28C84.2981 23.4675 83.3423 24.3818 82.1214 25.0232C80.9187 25.6644 79.5693 25.9867 78.0733 25.9901ZM78.0642 21.9398C78.9581 21.9378 79.7145 21.6077 80.3334 20.9495C80.9704 20.2913 81.2876 19.3509 81.2849 18.1286C81.2822 16.9063 80.9699 15.9673 80.3481 15.3119C79.7446 14.6565 78.9958 14.3297 78.1018 14.3318C77.1896 14.3338 76.4332 14.6639 75.8326 15.3221C75.232 15.962 74.933 16.9022 74.9358 18.1428C74.9386 19.3652 75.2326 20.3042 75.8179 20.9596C76.4214 21.6151 77.1701 21.9418 78.0642 21.9398ZM110.432 10.4278L106.334 25.7077L101.162 25.7193L98.732 15.818L96.2639 25.7303L91.119 25.7419L86.925 10.4806L91.6047 10.4701L93.7912 21.3845L96.3391 10.4595L101.292 10.4484L103.916 21.3071L106.026 10.4377L110.432 10.4278ZM119.889 14.2927L117.371 14.2984L117.397 25.6829L112.717 25.6934L112.692 14.3089L110.995 14.3127L110.986 10.4266L112.683 10.4228L112.682 9.98492C112.678 8.10578 113.212 6.6815 114.287 5.7121C115.361 4.72448 116.938 4.22834 119.018 4.22367C119.364 4.22289 119.62 4.23145 119.784 4.24932L119.793 8.21749C118.899 8.16476 118.27 8.29385 117.906 8.60486C117.541 8.91587 117.36 9.47266 117.362 10.2755L117.363 10.4123L119.88 10.4066L119.889 14.2927ZM137.678 10.3667L128.15 32.911L123.115 32.9223L126.6 25.1423L120.355 10.4056L125.582 10.3938L129.134 19.9369L132.615 10.3781L137.678 10.3667Z" fill="white"/>
<path d="M16.8346 8.0149C16.8255 3.94568 20.1168 0.639548 24.186 0.630415L31.554 0.613879L31.5705 7.98183C31.5797 12.051 28.2883 15.3572 24.2191 15.3663C20.1499 15.3754 16.8438 12.0841 16.8346 8.0149Z" fill="#FF6D35"/>
<path d="M24.2587 33.0434C20.1895 33.0525 16.8833 29.7612 16.8742 25.692L16.8577 18.324L24.2256 18.3075C28.2948 18.2984 31.601 21.5897 31.6101 25.6589C31.6192 29.7281 28.3279 33.0343 24.2587 33.0434Z" fill="#5CC97B"/>
<path d="M14.531 16.0402C14.5126 7.86349 8.37151 1.24879 0.814423 1.26575L0.868678 25.4401C0.877854 29.5284 3.9484 32.8358 7.72705 32.8274C11.5055 32.8189 14.5612 29.4977 14.552 25.4094L14.531 16.0402Z" fill="#3D96F4"/>
</svg>
